<svg width="86" height="86" viewBox="0 0 86 86" fill="none" xmlns="http://www.w3.org/2000/svg">
<rect width="86" height="86" rx="14" fill="#D9D9D9"/>
<path fill-rule="evenodd" clip-rule="evenodd" d="M51.9401 33.6773H67.9869V29.082H51.9401V33.6773ZM59.8499 42.9063C56.2703 42.9063 53.5517 45.124 53.2899 49.2217H66.1324C65.2619 44.3585 63.1015 42.9063 59.8499 42.9063ZM60.3514 61.9125C63.6566 61.9125 66.0819 59.8247 66.5771 58.0657H73.5282C71.5412 64.4273 67.4381 68 60.0707 68C50.6691 68 45.3927 61.3132 45.3927 52.4402C45.3927 31.5444 75.5435 30.7953 74.0296 54.3913H53.2899C53.4918 59.1829 55.4692 61.9125 60.3514 61.9125ZM29.0715 60.9932C32.8656 60.9932 35.5212 59.5337 35.5212 55.5956C35.5212 51.5109 33.1747 49.7391 29.2355 49.7391H19.7299V60.9932H29.0715ZM28.5701 43.5962C31.7271 43.5962 33.9064 42.1267 33.9064 38.713C33.9064 35.1169 31.3707 34.0068 27.9046 34.0068H19.7299V43.5962H28.5701ZM29.6834 27C37.1612 27 42.3587 29.4717 42.3587 37.1622C42.3587 40.97 40.8291 43.8078 36.9656 45.7198C41.9109 47.1889 44.251 51.0462 44.251 56.1146C44.251 64.1602 37.8708 68 30.2385 68H11V27H29.6834Z" fill="black"/>
</svg>
