<svg width="86" height="86" viewBox="0 0 86 86" fill="none" xmlns="http://www.w3.org/2000/svg">
<rect width="86" height="86" rx="14" fill="#D9D9D9"/>
<path d="M52.1047 42.2865C62.3133 41.0074 72.4417 43.0545 73.4467 43.2779C73.3987 36.0176 70.799 29.3486 66.54 24.1198C65.8858 24.9995 60.75 31.604 49.4248 36.2416C50.399 38.2079 51.2859 40.2494 52.1047 42.2865Z" fill="black"/>
<path d="M63.4924 20.7563C58.0853 15.9269 50.9711 13 43.1711 13C40.6988 13.0157 38.2901 13.32 35.9932 13.864C36.8385 14.9992 42.4052 22.6116 47.43 31.8546C58.3401 27.761 62.9498 21.5401 63.4924 20.7563Z" fill="black"/>
<path d="M41.9796 33.7142C36.9075 24.663 31.4202 17.0506 30.6071 15.9311C22.0413 19.9932 15.6135 27.9249 13.6357 37.4563C15.0072 37.4721 27.6402 37.52 41.9796 33.7142Z" fill="black"/>
<path d="M45.5558 43.4568C45.9517 43.3294 46.3475 43.2027 46.7591 43.0918C45.9989 41.3617 45.16 39.6152 44.2889 37.9166C29.1041 42.4726 14.3467 42.2822 13.0168 42.2665C12.7462 50.3406 15.7668 58.0017 20.8232 63.587C21.5196 62.3959 29.8643 48.5368 45.5558 43.4568Z" fill="black"/>
<path d="M48.447 48.1811C31.7011 54.0355 25.6763 65.6828 25.1509 66.7673C33.0138 73.2115 45.5122 74.9817 54.9664 70.6862C54.5183 68.0686 52.8033 58.9766 48.6324 48.1195C48.5708 48.1503 48.4935 48.166 48.447 48.1811Z" fill="black"/>
<path d="M54.5137 46.6829C58.4083 57.4319 59.9909 66.1739 60.3166 67.9941C66.9885 63.4517 71.7513 56.2809 73.0855 47.9584C72.0612 47.6313 63.854 45.1891 54.5137 46.6829Z" fill="black"/>
</svg>
