<svg width="86" height="86" viewBox="0 0 86 86" fill="none" xmlns="http://www.w3.org/2000/svg">
<rect width="86" height="86" rx="14" fill="#D9D9D9"/>
<path fill-rule="evenodd" clip-rule="evenodd" d="M43.2908 13C60.0205 13 73.5817 26.9033 73.5817 44.057C73.5817 57.7757 64.9124 69.4135 52.8839 73.524C51.3482 73.8299 50.803 72.86 50.803 72.0331C50.803 71.0093 50.8393 67.6653 50.8393 63.5094C50.8393 60.6136 49.87 58.7236 48.7826 57.7603C55.5283 56.9909 62.6164 54.3645 62.6164 42.4359C62.6164 39.0434 61.4411 36.2749 59.4964 34.1C59.8114 33.3155 60.8504 30.1566 59.1996 25.8795C59.1996 25.8795 56.6612 25.0473 50.8787 29.0639C48.4584 28.3763 45.8655 28.0303 43.2908 28.0182C40.7161 28.0303 38.1262 28.3763 35.709 29.0639C29.9205 25.0473 27.376 25.8795 27.376 25.8795C25.7312 30.1566 26.7702 33.3155 27.0822 34.1C25.1466 36.2749 23.9623 39.0434 23.9623 42.4359C23.9623 54.3342 31.0352 57.0009 37.7628 57.7855C36.8964 58.5609 36.1119 59.9289 35.8393 61.9371C34.1127 62.7308 29.7266 64.1043 27.0246 59.3577C27.0246 59.3577 25.4223 56.3736 22.3811 56.1556C22.3811 56.1556 19.4277 56.1163 22.1751 58.0428C22.1751 58.0428 24.1591 58.997 25.5374 62.5864C25.5374 62.5864 27.3155 68.1295 35.7424 66.2515C35.7575 68.8474 35.7848 71.294 35.7848 72.0331C35.7848 72.854 35.2274 73.8147 33.7159 73.5269C21.6783 69.4225 13 57.7787 13 44.057C13 26.9033 26.5642 13 43.2908 13Z" fill="black"/>
</svg>
