<svg width="86" height="86" viewBox="0 0 86 86" fill="none" xmlns="http://www.w3.org/2000/svg">
<rect width="86" height="86" rx="14" fill="#D9D9D9"/>
<path d="M42.5098 72.0196C36.1822 72.0196 31.6287 72.0165 28.0786 71.6722C24.5692 71.3319 22.3242 70.6783 20.5326 69.5524C18.4849 68.2659 16.7534 66.5346 15.4668 64.487C14.3414 62.6954 13.6872 60.4504 13.3474 56.941C13.0031 53.3909 13 48.8374 13 42.5098C13 36.1822 13.0031 31.6287 13.3474 28.0786C13.6872 24.5692 14.3414 22.3242 15.4668 20.5326C16.7534 18.4849 18.4849 16.7534 20.5326 15.4668C22.3242 14.3414 24.5692 13.6872 28.0786 13.3474C31.6283 13.0031 36.1817 13 42.5098 13C48.8374 13 53.3909 13.0031 56.941 13.3474C60.4504 13.6872 62.6954 14.3414 64.487 15.4668C66.5346 16.7534 68.2659 18.4849 69.5524 20.5326C70.6783 22.3242 71.3319 24.5692 71.6722 28.0786C72.0165 31.6287 72.0196 36.1822 72.0196 42.5098C72.0196 48.8374 72.0165 53.3909 71.6722 56.941C71.3319 60.4504 70.6783 62.6954 69.5524 64.487C68.2659 66.5345 66.5345 68.2659 64.487 69.5524C62.6954 70.6783 60.4504 71.3319 56.941 71.6722C53.3909 72.0165 48.8374 72.0196 42.5098 72.0196Z" stroke="black" stroke-width="5.36542"/>
<path d="M42.5097 55.9234C49.9178 55.9234 55.9233 49.918 55.9233 42.5099C55.9233 35.1018 49.9178 29.0963 42.5097 29.0963C35.1016 29.0963 29.0962 35.1018 29.0962 42.5099C29.0962 49.918 35.1016 55.9234 42.5097 55.9234Z" stroke="black" stroke-width="5.36542"/>
<path d="M59.9474 29.0963C62.1698 29.0963 63.9715 27.2947 63.9715 25.0723C63.9715 22.8499 62.1698 21.0482 59.9474 21.0482C57.725 21.0482 55.9233 22.8499 55.9233 25.0723C55.9233 27.2947 57.725 29.0963 59.9474 29.0963Z" fill="black"/>
</svg>
