<svg width="20" height="12" viewBox="0 0 20 12" fill="none" xmlns="http://www.w3.org/2000/svg">
<path d="M10 0C9.46957 0 8.96086 0.210713 8.58579 0.585786C8.21071 0.960859 8 1.46957 8 2C8 2.53043 8.21071 3.03914 8.58579 3.41421C8.96086 3.78929 9.46957 4 10 4C10.5304 4 11.0391 3.78929 11.4142 3.41421C11.7893 3.03914 12 2.53043 12 2C12 1.46957 11.7893 0.960859 11.4142 0.585786C11.0391 0.210713 10.5304 0 10 0ZM0 10C0 9.46957 0.210713 8.96086 0.585786 8.58579C0.960859 8.21071 1.46957 8 2 8C2.53043 8 3.03914 8.21071 3.41421 8.58579C3.78929 8.96086 4 9.46957 4 10C4 10.5304 3.78929 11.0391 3.41421 11.4142C3.03914 11.7893 2.53043 12 2 12C1.46957 12 0.960859 11.7893 0.585786 11.4142C0.210713 11.0391 0 10.5304 0 10ZM10 8C9.46957 8 8.96086 8.21071 8.58579 8.58579C8.21071 8.96086 8 9.46957 8 10C8 10.5304 8.21071 11.0391 8.58579 11.4142C8.96086 11.7893 9.46957 12 10 12C10.5304 12 11.0391 11.7893 11.4142 11.4142C11.7893 11.0391 12 10.5304 12 10C12 9.46957 11.7893 8.96086 11.4142 8.58579C11.0391 8.21071 10.5304 8 10 8ZM18 8C17.4696 8 16.9609 8.21071 16.5858 8.58579C16.2107 8.96086 16 9.46957 16 10C16 10.5304 16.2107 11.0391 16.5858 11.4142C16.9609 11.7893 17.4696 12 18 12C18.5304 12 19.0391 11.7893 19.4142 11.4142C19.7893 11.0391 20 10.5304 20 10C20 9.46957 19.7893 8.96086 19.4142 8.58579C19.0391 8.21071 18.5304 8 18 8ZM16 2C16 1.46957 16.2107 0.960859 16.5858 0.585786C16.9609 0.210713 17.4696 0 18 0C18.5304 0 19.0391 0.210713 19.4142 0.585786C19.7893 0.960859 20 1.46957 20 2C20 2.53043 19.7893 3.03914 19.4142 3.41421C19.0391 3.78929 18.5304 4 18 4C17.4696 4 16.9609 3.78929 16.5858 3.41421C16.2107 3.03914 16 2.53043 16 2ZM2 0C1.46957 0 0.960859 0.210713 0.585786 0.585786C0.210713 0.960859 0 1.46957 0 2C0 2.53043 0.210713 3.03914 0.585786 3.41421C0.960859 3.78929 1.46957 4 2 4C2.53043 4 3.03914 3.78929 3.41421 3.41421C3.78929 3.03914 4 2.53043 4 2C4 1.46957 3.78929 0.960859 3.41421 0.585786C3.03914 0.210713 2.53043 0 2 0Z" fill="black"/>
</svg>
