<svg width="56" height="48" viewBox="0 0 56 48" fill="none" xmlns="http://www.w3.org/2000/svg">
<path d="M0.66748 23.8165C13.1683 23.9282 23.5517 14.1994 24.2531 1.7178L24.3053 0.789318L24.4474 2.7361C25.327 14.7927 35.2462 24.1942 47.3325 24.4272L45.6344 24.632C34.1274 26.0197 25.0832 35.1347 23.7851 46.6522L23.6947 47.4544C23.2928 35.6217 14.4596 25.7825 2.73859 24.1118L0.66748 23.8165Z" fill="#D9D9D9"/>
<path d="M38 9.77673V9.77673C42.7646 9.8193 46.7222 6.11121 46.9896 1.3539L47.0095 1.00001L47.0636 1.74202C47.3989 6.33732 51.1795 9.92069 55.7862 10.0095V10.0095L55.4444 10.0507C50.8795 10.6012 47.2917 14.2172 46.7767 18.7862V18.7862V18.7862C46.6235 14.2762 43.2568 10.5261 38.7894 9.88926L38 9.77673Z" fill="#D9D9D9"/>
</svg>
